<?xml version="1.0" encoding="UTF-8" standalone="no"?>
<!DOCTYPE svg PUBLIC "-//W3C//DTD SVG 1.1//EN" "http://www.w3.org/Graphics/SVG/1.1/DTD/svg11.dtd">
<svg width="100%" height="100%" viewBox="0 0 673 673" version="1.1" xmlns="http://www.w3.org/2000/svg" xmlns:xlink="http://www.w3.org/1999/xlink" xml:space="preserve" xmlns:serif="http://www.serif.com/" style="fill-rule:evenodd;clip-rule:evenodd;stroke-linejoin:round;stroke-miterlimit:2;">
    <g transform="matrix(1,0,0,1,-622.084,-435.717)">
        <path d="M622.084,725.286L622.084,471.87C622.084,451.917 638.283,435.717 658.236,435.717L1258.89,435.717C1278.85,435.717 1295.05,451.917 1295.05,471.87L1295.05,1072.53C1295.05,1092.48 1278.85,1108.68 1258.89,1108.68L1003.84,1108.68C1074.18,1058.73 1120.43,976.661 1120.43,884.632C1120.43,845.582 1112.11,806.977 1096.01,771.4L923.435,943.973C905.748,961.309 877.036,961.309 859.349,943.973L786.109,870.733C768.772,853.046 768.772,824.334 786.109,806.647L958.682,634.074C923.105,617.975 884.5,609.646 845.45,609.646C753.843,609.646 672.101,655.478 622.084,725.286ZM1015.7,711.529C1047.89,743.868 1047.77,796.259 1015.43,828.452C983.092,860.644 930.701,860.525 898.508,828.186C866.316,795.847 866.435,743.456 898.774,711.263C931.113,679.071 983.504,679.19 1015.7,711.529Z"/>
    </g>
</svg>
